{
  "asset": {
    "generator": "Khronos glTF Blender I/O v1.6.16",
    "version": "2.0"
  },
  "scene": 0,
  "scenes": [
    {
      "name": "Arena",
      "nodes": [
        0,
        1,
        2,
        3,
        4,
        5,
        6,
        7,
        8
      ]
    }
  ],
  "nodes": [
    {
      "mesh": 0,
      "name": "Floor",
      "translation": [
        0,
        -0.25,
        0
      ]
    },
    {
      "mesh": 1,
      "name": "NorthWall",
      "translation": [
        0,
        1.5,
        -10
      ]
    },
    {
      "mesh": 1,
      "name": "SouthWall",
      "translation": [
        0,
        1.5,
        10
      ]
    },
    {
      "mesh": 2,
      "name": "EastWall",
      "translation": [
        10,
        1.5,
        0
      ]
    },
    {
      "mesh": 2,
      "name": "WestWall",
      "translation": [
        -10,
        1.5,
        0
      ]
    },
    {
      "mesh": 3,
      "name": "Pillar1",
      "translation": [
        -8,
        2.25,
        -8
      ]
    },
    {
      "mesh": 3,
      "name": "Pillar2",
      "translation": [
        8,
        2.25,
        -8
      ]
    },
    {
      "mesh": 3,
      "name": "Pillar3",
      "translation": [
        -8,
        2.25,
        8
      ]
    },
    {
      "mesh": 3,
      "name": "Pillar4",
      "translation": [
        8,
        2.25,
        8
      ]
    }
  ],
  "materials": [
    {
      "doubleSided": true,
      "name": "FloorMaterial",
      "pbrMetallicRoughness": {
        "baseColorFactor": [
          0.5411764979362488,
          0.4274509847164154,
          0.23137255012989044,
          1
        ],
        "metallicFactor": 0,
        "roughnessFactor": 0.5
      }
    },
    {
      "doubleSided": true,
      "name": "WallMaterial",
      "pbrMetallicRoughness": {
        "baseColorFactor": [
          0.3647058904170990,
          0.2509804069995880,
          0.2156862765550613,
          1
        ],
        "metallicFactor": 0,
        "roughnessFactor": 0.7
      }
    },
    {
      "doubleSided": true,
      "name": "PillarMaterial",
      "pbrMetallicRoughness": {
        "baseColorFactor": [
          0.5529412031173706,
          0.4313725531101227,
          0.3882353007793427,
          1
        ],
        "metallicFactor": 0,
        "roughnessFactor": 0.6
      }
    }
  ],
  "meshes": [
    {
      "name": "Floor",
      "primitives": [
        {
          "attributes": {
            "POSITION": 0,
            "NORMAL": 1,
            "TEXCOORD_0": 2
          },
          "indices": 3,
          "material": 0
        }
      ]
    },
    {
      "name": "NorthSouthWall",
      "primitives": [
        {
          "attributes": {
            "POSITION": 4,
            "NORMAL": 5,
            "TEXCOORD_0": 6
          },
          "indices": 7,
          "material": 1
        }
      ]
    },
    {
      "name": "EastWestWall",
      "primitives": [
        {
          "attributes": {
            "POSITION": 8,
            "NORMAL": 9,
            "TEXCOORD_0": 10
          },
          "indices": 11,
          "material": 1
        }
      ]
    },
    {
      "name": "Pillar",
      "primitives": [
        {
          "attributes": {
            "POSITION": 12,
            "NORMAL": 13,
            "TEXCOORD_0": 14
          },
          "indices": 15,
          "material": 2
        }
      ]
    }
  ],
  "accessors": [
    {
      "bufferView": 0,
      "componentType": 5126,
      "count": 24,
      "max": [
        10,
        0.25,
        10
      ],
      "min": [
        -10,
        -0.25,
        -10
      ],
      "type": "VEC3"
    },
    {
      "bufferView": 1,
      "componentType": 5126,
      "count": 24,
      "type": "VEC3"
    },
    {
      "bufferView": 2,
      "componentType": 5126,
      "count": 24,
      "type": "VEC2"
    },
    {
      "bufferView": 3,
      "componentType": 5123,
      "count": 36,
      "type": "SCALAR"
    },
    {
      "bufferView": 4,
      "componentType": 5126,
      "count": 24,
      "max": [
        10,
        3,
        0.25
      ],
      "min": [
        -10,
        0,
        -0.25
      ],
      "type": "VEC3"
    },
    {
      "bufferView": 5,
      "componentType": 5126,
      "count": 24,
      "type": "VEC3"
    },
    {
      "bufferView": 6,
      "componentType": 5126,
      "count": 24,
      "type": "VEC2"
    },
    {
      "bufferView": 7,
      "componentType": 5123,
      "count": 36,
      "type": "SCALAR"
    },
    {
      "bufferView": 8,
      "componentType": 5126,
      "count": 24,
      "max": [
        0.25,
        3,
        10
      ],
      "min": [
        -0.25,
        0,
        -10
      ],
      "type": "VEC3"
    },
    {
      "bufferView": 9,
      "componentType": 5126,
      "count": 24,
      "type": "VEC3"
    },
    {
      "bufferView": 10,
      "componentType": 5126,
      "count": 24,
      "type": "VEC2"
    },
    {
      "bufferView": 11,
      "componentType": 5123,
      "count": 36,
      "type": "SCALAR"
    },
    {
      "bufferView": 12,
      "componentType": 5126,
      "count": 128,
      "max": [
        0.5,
        4.5,
        0.5
      ],
      "min": [
        -0.5,
        0,
        -0.5
      ],
      "type": "VEC3"
    },
    {
      "bufferView": 13,
      "componentType": 5126,
      "count": 128,
      "type": "VEC3"
    },
    {
      "bufferView": 14,
      "componentType": 5126,
      "count": 128,
      "type": "VEC2"
    },
    {
      "bufferView": 15,
      "componentType": 5123,
      "count": 192,
      "type": "SCALAR"
    }
  ],
  "bufferViews": [
    {
      "buffer": 0,
      "byteLength": 288,
      "byteOffset": 0
    },
    {
      "buffer": 0,
      "byteLength": 288,
      "byteOffset": 288
    },
    {
      "buffer": 0,
      "byteLength": 192,
      "byteOffset": 576
    },
    {
      "buffer": 0,
      "byteLength": 72,
      "byteOffset": 768
    },
    {
      "buffer": 0,
      "byteLength": 288,
      "byteOffset": 840
    },
    {
      "buffer": 0,
      "byteLength": 288,
      "byteOffset": 1128
    },
    {
      "buffer": 0,
      "byteLength": 192,
      "byteOffset": 1416
    },
    {
      "buffer": 0,
      "byteLength": 72,
      "byteOffset": 1608
    },
    {
      "buffer": 0,
      "byteLength": 288,
      "byteOffset": 1680
    },
    {
      "buffer": 0,
      "byteLength": 288,
      "byteOffset": 1968
    },
    {
      "buffer": 0,
      "byteLength": 192,
      "byteOffset": 2256
    },
    {
      "buffer": 0,
      "byteLength": 72,
      "byteOffset": 2448
    },
    {
      "buffer": 0,
      "byteLength": 1536,
      "byteOffset": 2520
    },
    {
      "buffer": 0,
      "byteLength": 1536,
      "byteOffset": 4056
    },
    {
      "buffer": 0,
      "byteLength": 1024,
      "byteOffset": 5592
    },
    {
      "buffer": 0,
      "byteLength": 384,
      "byteOffset": 6616
    }
  ],
  "buffers": [
    {
      "byteLength": 7000,
      "uri": "data:application/octet-stream;base64,"
    }
  ]
}
